<svg id="Layer_1" data-name="Layer 1" xmlns="http://www.w3.org/2000/svg" viewBox="0 0 614.16 203.35"><defs><style>.cls-1{fill:#336d46;}.cls-2{fill:#231f20;}</style></defs><title>Logo - Green</title><path class="cls-1" d="M89.41,7.8C76.08,7.8,58,12.72,41.32,24.47c-12.06,8.41-19.2,19.2-19.2,29.36A21.11,21.11,0,0,0,29.9,69.54c1.74,1.27,4.92.63,3.8-.16-6.66-4.6-8.88-9.84-8.88-14.6,0-7.94,6.35-18.89,19.52-27.62,13-8.73,30.79-15.39,44.44-15.39,22.22,0,34,13.65,34,33.49,0,27.29-11.9,53.48-31.9,76.34-11.58,13.65-40.15,28.25-57.29,28.25-15.4,0-22.22-7.14-22.22-15.4,0-11.58,11.11-32.37,34.28-50.15l3.17-2.38C45,96.68,41.48,111.6,39.89,121.6c-.31,1.9,1,6,2.07.79,2.22-10.63,6.19-26.35,10.47-43C68.3,69.06,80.84,66.68,85,66.37c4.6-.32,5.39-1.91,3.49-2.07-1.59-.16-16.19-.16-34.44,9.52,3.49-13.49,7.3-27.29,10.79-39,1.11-4.13-.31-8.25-2.06-3.17-1.11,2.85-6.83,22.69-12.38,44.28-2.22,1.27-4.29,2.7-6.51,4.12C18.47,97.79,9,118.9,9,134.45c0,12.06,7.46,20.64,24.28,20.64s42.37-12.23,60.31-30.95c21.27-21.91,33.33-53,33.33-76.34C126.87,18,107.35,7.8,89.41,7.8Z"/><path class="cls-1" d="M199.77,85.18c-17.62,15.15-40.67,25.36-50.05,24.2-3.13-.32-2.8-5.26-.17-10.86,2.14-4.61,3.95-6.92,3.95-8.23,0-1.49-.66-2-6.91-4.45a2.6,2.6,0,0,1-1.16-.66c4.29-3.78,6.26-7.08,6.59-10.53.16-1.32-1.65-3.13-3-3.3-2.31-.49-7.08,1.32-8.73,7.25a8.58,8.58,0,0,0,1.48,7.24l1.32,1.32a5.34,5.34,0,0,0,2.3,1.32c3.46,1.15,3.79,1.64,3.79,2.47,0,.65-1.15,2.63-2.8,6.25-3.78,8.4-2.47,15.48,2.14,16,8.89,1,35.4-10.21,53.35-27C203.39,84.69,201.41,83.7,199.77,85.18ZM144.12,83.7a5.63,5.63,0,0,1-.5-4.28c.83-2.64,3.95-5.93,5.6-5.43.33.16.33.16.33.49C149.39,76.62,147.57,80.24,144.12,83.7Z"/><path class="cls-1" d="M196.65,100.17c-1.54,0-5.94,4-5.94,4.71,0,2.23,1.76,4,2.64,4s5.73-2.73,5.73-5.45C199.08,101.91,197.31,100.17,196.65,100.17Z"/><path class="cls-1" d="M311.41,7.8C288,7.8,267.14,19.66,251.1,39c-15.7,19.21-15,41.59-7.18,49.61,2.51,4,10.36,4.51,6.18.17-10.19-10.69-8.69-29.74,4-46.27,13.7-18,36.08-31.58,57-31.58,24.39,0,33.58,14.54,32.08,30.91-2.68,29.06-35.25,47.61-65.49,48.78l.67-2.68c5-25.55,9.36-42.43,14.37-56.46,1.5-4.17-.67-5-2.51-.83-6.51,14.86-10.86,31.74-16,56.79a20,20,0,0,0-.67,3.18h-1.34c-4.68-.17-3.51,4.17.17,4.17h.33c-4,19.88-8,46.11-9.52,58.14-.33,3,3.84-.84,4.51-4.18,1-4.34,2.67-21.21,9.19-54,37.08-1.67,68.66-22.38,70.33-52.45C348.33,24.51,338.3,7.8,311.41,7.8Z"/><path class="cls-1" d="M434.05,67c.82,0,3.29-2.63,3.29-4.12a2.5,2.5,0,0,0-2.14-2.47c-.82,0-2.8,1.82-2.8,3C432.4,64.32,433.06,67,434.05,67Z"/><path class="cls-1" d="M470.22,95.27l-.51.19c2.78-16.07,5.72-29.82,7.2-36.75,3.1-14.5,7.5-30.64,7.82-31.45,1.8-3.91,3.91-7.33,4.4-9.29.49-1.47.17-5.38-1.3-5.38-2.61,0-6.68,8.8-14.67,44-2.91,12.67-5.67,26.05-7.89,40.43-7.73,2.69-22.92,7.79-33.75,10.28-15.09,3.49-3.48-13-2.71-15.19a2.17,2.17,0,0,0-2.42-2.9l-.12.27a2.63,2.63,0,0,0-.62.2c-13.83,8.07-32.92,18.77-44.12,18.77-3,0-2.63-2-2.63-6.25,0-3.46-.33-6.1-3.46-6.1-3.62.17-9.06,4.28-18.44,10.54,1.15-8.89,4.28-28.65,8.89-49.23,3.13-14.65,7.41-30.95,7.74-31.77,1.81-3.95,3.95-7.41,4.44-9.39.33-1.48,0-5.43-1.48-5.43-2.63,0-6.91,8.89-14.49,44.45-4.61,21.41-7.57,40.67-8.89,50.55-.49,3.46.33,5.27,1.32,5.27s2.3-1,3.62-2c6.26-4.12,14.82-9.06,16.46-9.06,1,0,.5,1.82.5,4.12,0,4.12,2.3,7.41,7.08,7.41,13.12-.16,25.2-8.67,42.18-18.1L421,100.65c-4.46,17,14.8,8.59,14.8,8.59s16.66-5.85,29.23-10.46c-1.62,10.81-2.92,22.18-3.74,34.24-1,12.22.65,20.16,2.77,20,1.63-.16-1-3.71.32-18.7,1.15-12.38,3-25.35,5.06-37.17a91.64,91.64,0,0,0,9.28-3.75C480.44,92,470.22,95.27,470.22,95.27Z"/><path class="cls-1" d="M493,67.18c1,.16,3.13-1.65,3.63-3.13a3.35,3.35,0,0,0-2.14-3.79c-1-.16-2.31,1.65-2.64,2.63C491.55,64.05,492.21,66.85,493,67.18Z"/><path class="cls-1" d="M540.46,93.19s-31.08,11.3-46.18,14.78-3.48-13-2.71-15.19a2.18,2.18,0,0,0-2.42-2.91l-5.42,11.44c-4.45,17,14.81,8.6,14.81,8.6s40.16-14.17,41.9-15.54S540.46,93.19,540.46,93.19Z"/><path class="cls-1" d="M605.18,78.75s-9.59,2.65-32.33,12.67A21,21,0,0,0,573,85c-2-15-18,0-18,0h0c-4.85,4.3-10.19,10.94-15.52,19.43,3.63-13.77,7.07-28.62,8.7-40.39.36-2.72-3.08-3.8-3.44-1.27-3.26,19.2-6.52,36.41-10.51,50.9-1.63,2.89-3.08,6-4.53,9.23-8.69,19-10.4,27.71-10.4,28.62a2.38,2.38,0,0,0,2.57,2c1.27,0,2,1.29,6.57-11.75,1.81-5.25,4.71-14.49,7.78-25.18,7.76-14.86,15.27-24.22,21-29.37h0s14.54-13.11,12.53,2.91a29.07,29.07,0,0,1-.53,2.92l-2,.88c-26.82,12.11-27.65,23.38-17.8,22.67,7.87-.57,19.51-10.83,22.86-22.56,12.76-6.16,28.41-13,32.48-14.75C605.4,79,605.18,78.75,605.18,78.75ZM550,112.58c-3.08-.12-1.54-3.45,5.46-9.29,2-1.65,6.86-4.32,12.84-7.29C564,107.77,552.66,112.68,550,112.58Z"/><path class="cls-2" d="M85.1,188.39v7H83.85V178.05h4.47a6.85,6.85,0,0,1,4.59,1.33,4.77,4.77,0,0,1,1.55,3.81,5,5,0,0,1-.43,2.09,4.55,4.55,0,0,1-1.21,1.64A5.61,5.61,0,0,1,90.88,188a7.82,7.82,0,0,1-2.56.39Zm0-1h3.22a6,6,0,0,0,2.05-.32,4.47,4.47,0,0,0,1.54-.88,3.68,3.68,0,0,0,1-1.32,4,4,0,0,0,.34-1.67A3.85,3.85,0,0,0,92,180.12,5.4,5.4,0,0,0,88.32,179H85.1Z"/><path class="cls-2" d="M111.52,180.15a.34.34,0,0,1-.32.21.72.72,0,0,1-.41-.22,5,5,0,0,0-.68-.51,5.37,5.37,0,0,0-1.07-.5,4.59,4.59,0,0,0-1.59-.24,4.76,4.76,0,0,0-1.67.27,3.53,3.53,0,0,0-1.2.74,3.09,3.09,0,0,0-.73,1.07,3.34,3.34,0,0,0-.26,1.29,2.6,2.6,0,0,0,.38,1.45,3.39,3.39,0,0,0,1,1,6.42,6.42,0,0,0,1.39.68l1.6.55a16.93,16.93,0,0,1,1.6.59,5.76,5.76,0,0,1,1.39.81,3.55,3.55,0,0,1,1.36,3,5.61,5.61,0,0,1-.37,2.05,4.9,4.9,0,0,1-1.08,1.67,5.19,5.19,0,0,1-1.74,1.11,6.2,6.2,0,0,1-2.35.41,6.72,6.72,0,0,1-3-.6,7.1,7.1,0,0,1-2.16-1.66l.34-.54a.43.43,0,0,1,.34-.18.46.46,0,0,1,.28.15,5.18,5.18,0,0,1,.42.36c.16.14.36.29.59.46a5.32,5.32,0,0,0,.79.47,6.31,6.31,0,0,0,1,.36,5.52,5.52,0,0,0,1.34.14,5,5,0,0,0,1.84-.31,4,4,0,0,0,1.36-.85,3.53,3.53,0,0,0,.86-1.28,4.35,4.35,0,0,0,.29-1.58,2.89,2.89,0,0,0-.37-1.51,3.12,3.12,0,0,0-1-1,6.18,6.18,0,0,0-1.39-.67c-.52-.18-1-.35-1.6-.52s-1.08-.37-1.6-.58a5.45,5.45,0,0,1-1.39-.81,3.53,3.53,0,0,1-1-1.24,4.06,4.06,0,0,1-.38-1.85,4.41,4.41,0,0,1,.33-1.68,4.18,4.18,0,0,1,1-1.42,4.78,4.78,0,0,1,1.57-1,5.75,5.75,0,0,1,2.14-.38,6.57,6.57,0,0,1,2.42.43,5.68,5.68,0,0,1,2,1.31Z"/><path class="cls-2" d="M126.46,188.22v7.14H125.2v-7.14l-6.4-10.17h1.09a.46.46,0,0,1,.27.08.77.77,0,0,1,.2.23l5,7.95a5.77,5.77,0,0,1,.29.54c.08.18.16.35.22.53.07-.18.14-.35.22-.53a4.23,4.23,0,0,1,.3-.54l4.94-7.95a.67.67,0,0,1,.18-.22.43.43,0,0,1,.28-.09h1.1Z"/><path class="cls-2" d="M152.46,192.45a.32.32,0,0,1,.21.08l.49.53a8.14,8.14,0,0,1-1.17,1,7.57,7.57,0,0,1-1.39.79,8.84,8.84,0,0,1-1.65.5,10.15,10.15,0,0,1-2,.17,8.44,8.44,0,0,1-3.3-.63,7.37,7.37,0,0,1-2.57-1.78,8.21,8.21,0,0,1-1.67-2.8,10.73,10.73,0,0,1-.59-3.64,10.15,10.15,0,0,1,.61-3.6,8.14,8.14,0,0,1,1.74-2.79,7.65,7.65,0,0,1,2.68-1.81,8.93,8.93,0,0,1,3.44-.65A10.18,10.18,0,0,1,149,178a8,8,0,0,1,1.46.41,6.7,6.7,0,0,1,1.28.65A9.72,9.72,0,0,1,153,180l-.38.55a.32.32,0,0,1-.3.14.5.5,0,0,1-.28-.12l-.44-.32c-.17-.13-.39-.27-.63-.42a4.93,4.93,0,0,0-.89-.41,6.58,6.58,0,0,0-1.19-.32,7.87,7.87,0,0,0-1.53-.13,7.6,7.6,0,0,0-2.9.54,6.58,6.58,0,0,0-2.27,1.56,7.15,7.15,0,0,0-1.49,2.44,9.39,9.39,0,0,0-.53,3.23,9.6,9.6,0,0,0,.53,3.28,7.13,7.13,0,0,0,1.45,2.44,6.41,6.41,0,0,0,2.2,1.53,7.08,7.08,0,0,0,2.74.53,10.25,10.25,0,0,0,1.66-.12A7.27,7.27,0,0,0,150,194a5.62,5.62,0,0,0,1.14-.6,9.69,9.69,0,0,0,1-.83.59.59,0,0,1,.11-.08A.28.28,0,0,1,152.46,192.45Z"/><path class="cls-2" d="M175.59,195.36h-1.26v-8.3H163.5v8.3h-1.26V178.05h1.26v8.07h10.83v-8.07h1.26Z"/><path class="cls-2" d="M201.31,186.7a10.49,10.49,0,0,1-.6,3.64,8.15,8.15,0,0,1-1.69,2.79,7.53,7.53,0,0,1-2.61,1.78,9.22,9.22,0,0,1-6.7,0,7.53,7.53,0,0,1-2.61-1.78,8.15,8.15,0,0,1-1.69-2.79,11.14,11.14,0,0,1,0-7.27,8.15,8.15,0,0,1,1.69-2.79,7.55,7.55,0,0,1,2.61-1.79,9.15,9.15,0,0,1,6.7,0,7.44,7.44,0,0,1,2.61,1.8,8.15,8.15,0,0,1,1.69,2.79A10.47,10.47,0,0,1,201.31,186.7Zm-1.3,0a10.05,10.05,0,0,0-.5-3.26A7.21,7.21,0,0,0,198.1,181a6.12,6.12,0,0,0-2.2-1.54,7.49,7.49,0,0,0-2.85-.53,7.34,7.34,0,0,0-2.82.53A6.21,6.21,0,0,0,188,181a6.94,6.94,0,0,0-1.43,2.44,10.67,10.67,0,0,0,0,6.52A6.94,6.94,0,0,0,188,192.4a6.06,6.06,0,0,0,2.2,1.53,7.34,7.34,0,0,0,2.82.52,7.49,7.49,0,0,0,2.85-.52,6,6,0,0,0,2.2-1.53,7.21,7.21,0,0,0,1.41-2.44A10,10,0,0,0,200,186.7Z"/><path class="cls-2" d="M211.76,194.29H220v1.07h-9.45V178.05h1.24Z"/><path class="cls-2" d="M242.63,186.7a10.49,10.49,0,0,1-.6,3.64,8,8,0,0,1-1.69,2.79,7.44,7.44,0,0,1-2.61,1.78,9.22,9.22,0,0,1-6.7,0,7.4,7.4,0,0,1-2.6-1.78,8,8,0,0,1-1.7-2.79,11.31,11.31,0,0,1,0-7.27,8,8,0,0,1,1.7-2.79,7.42,7.42,0,0,1,2.6-1.79,9.15,9.15,0,0,1,6.7,0,7.35,7.35,0,0,1,2.61,1.8,8,8,0,0,1,1.69,2.79A10.47,10.47,0,0,1,242.63,186.7Zm-1.3,0a10.05,10.05,0,0,0-.5-3.26,7.21,7.21,0,0,0-1.41-2.44,6.12,6.12,0,0,0-2.2-1.54,7.49,7.49,0,0,0-2.85-.53,7.34,7.34,0,0,0-2.82.53,6.21,6.21,0,0,0-2.2,1.54,6.94,6.94,0,0,0-1.43,2.44,10.67,10.67,0,0,0,0,6.52,6.94,6.94,0,0,0,1.43,2.44,6.06,6.06,0,0,0,2.2,1.53,7.34,7.34,0,0,0,2.82.52,7.49,7.49,0,0,0,2.85-.52,6,6,0,0,0,2.2-1.53,7.21,7.21,0,0,0,1.41-2.44A10,10,0,0,0,241.33,186.7Z"/><path class="cls-2" d="M259.28,194.54a13.39,13.39,0,0,0,1.62-.09,8.94,8.94,0,0,0,2.57-.72c.37-.18.76-.38,1.14-.6v-4.66h-3.33a.33.33,0,0,1-.22-.08.26.26,0,0,1-.1-.2v-.68h4.79v6.15a12.37,12.37,0,0,1-1.35.81,9.44,9.44,0,0,1-1.49.59,12,12,0,0,1-1.71.37,15.63,15.63,0,0,1-2,.12,9,9,0,0,1-3.42-.63,7.5,7.5,0,0,1-2.65-1.78,8,8,0,0,1-1.72-2.8,11.17,11.17,0,0,1,0-7.28,7.93,7.93,0,0,1,1.73-2.79,7.71,7.71,0,0,1,2.74-1.79,9.78,9.78,0,0,1,3.6-.63,11.53,11.53,0,0,1,1.83.14,8.09,8.09,0,0,1,1.56.4,7.2,7.2,0,0,1,1.34.64,9.31,9.31,0,0,1,1.2.89l-.33.54a.33.33,0,0,1-.3.18.36.36,0,0,1-.21,0,2.18,2.18,0,0,1-.53-.34,5.41,5.41,0,0,0-.94-.56,8.19,8.19,0,0,0-1.49-.53,9,9,0,0,0-2.17-.23,8.15,8.15,0,0,0-3,.54,6.42,6.42,0,0,0-2.32,1.54,6.84,6.84,0,0,0-1.48,2.45,9.41,9.41,0,0,0-.52,3.24,9.66,9.66,0,0,0,.53,3.29,7,7,0,0,0,1.47,2.46,6.24,6.24,0,0,0,2.28,1.55A7.68,7.68,0,0,0,259.28,194.54Z"/><path class="cls-2" d="M277,195.36h-1.26V178.05H277v17.31Z"/><path class="cls-2" d="M300.31,192.45a.29.29,0,0,1,.21.08l.49.53a8.14,8.14,0,0,1-1.17,1,7.57,7.57,0,0,1-1.39.79,8.62,8.62,0,0,1-1.65.5,10.15,10.15,0,0,1-2,.17,8.35,8.35,0,0,1-3.29-.63,7.28,7.28,0,0,1-2.57-1.78,8.06,8.06,0,0,1-1.67-2.8,10.49,10.49,0,0,1-.6-3.64,9.93,9.93,0,0,1,.62-3.6,8.27,8.27,0,0,1,1.73-2.79,7.65,7.65,0,0,1,2.68-1.81,8.93,8.93,0,0,1,3.44-.65,10.18,10.18,0,0,1,1.73.14,8,8,0,0,1,1.46.41,6.7,6.7,0,0,1,1.28.65,9.72,9.72,0,0,1,1.17.91l-.37.55a.34.34,0,0,1-.31.14.53.53,0,0,1-.28-.12l-.44-.32a6.85,6.85,0,0,0-.63-.42,4.93,4.93,0,0,0-.89-.41,6.58,6.58,0,0,0-1.19-.32,7.73,7.73,0,0,0-1.53-.13,7.55,7.55,0,0,0-2.89.54A6.71,6.71,0,0,0,290,181a7.15,7.15,0,0,0-1.49,2.44,9.39,9.39,0,0,0-.53,3.23,9.6,9.6,0,0,0,.53,3.28,7.13,7.13,0,0,0,1.45,2.44,6.51,6.51,0,0,0,2.2,1.53,7.09,7.09,0,0,0,2.75.53,10.12,10.12,0,0,0,1.65-.12,7.05,7.05,0,0,0,1.34-.37,5.62,5.62,0,0,0,1.14-.6,9.69,9.69,0,0,0,1-.83.42.42,0,0,1,.12-.08A.24.24,0,0,1,300.31,192.45Z"/><path class="cls-2" d="M323.12,195.36h-1a.43.43,0,0,1-.28-.09.53.53,0,0,1-.17-.24l-2.05-5h-8.5l-2,5a.48.48,0,0,1-.17.23.43.43,0,0,1-.29.1h-1l7.09-17.31H316Zm-11.59-6.29h7.76l-3.54-8.75c-.05-.13-.11-.29-.17-.47s-.11-.36-.17-.55c-.06.19-.11.38-.17.55l-.17.49Z"/><path class="cls-2" d="M332.24,194.29h8.21v1.07H331V178.05h1.25Z"/><path class="cls-2" d="M366.88,180.15a.34.34,0,0,1-.32.21.72.72,0,0,1-.41-.22,4.42,4.42,0,0,0-.68-.51,5.11,5.11,0,0,0-1.07-.5,4.59,4.59,0,0,0-1.59-.24,4.7,4.7,0,0,0-1.66.27,3.58,3.58,0,0,0-1.21.74,3.24,3.24,0,0,0-.73,1.07,3.33,3.33,0,0,0-.25,1.29,2.6,2.6,0,0,0,.37,1.45,3.31,3.31,0,0,0,1,1,6,6,0,0,0,1.39.68l1.59.55a16,16,0,0,1,1.6.59,5.58,5.58,0,0,1,1.39.81,3.55,3.55,0,0,1,1.36,3,5.61,5.61,0,0,1-.37,2.05A4.9,4.9,0,0,1,366.2,194a5,5,0,0,1-1.74,1.11,6.16,6.16,0,0,1-2.35.41,6.72,6.72,0,0,1-2.95-.6,7.1,7.1,0,0,1-2.16-1.66l.34-.54a.43.43,0,0,1,.34-.18.5.5,0,0,1,.29.15l.41.36.59.46a5,5,0,0,0,.8.47,6,6,0,0,0,1,.36,5.38,5.38,0,0,0,1.33.14,5,5,0,0,0,1.84-.31,4.13,4.13,0,0,0,1.37-.85,3.63,3.63,0,0,0,.85-1.28,4.35,4.35,0,0,0,.29-1.58,2.79,2.79,0,0,0-.37-1.51,3.12,3.12,0,0,0-1-1,6.18,6.18,0,0,0-1.39-.67c-.52-.18-1.05-.35-1.6-.52s-1.08-.37-1.6-.58a5.63,5.63,0,0,1-1.39-.81,3.77,3.77,0,0,1-1-1.24,4.06,4.06,0,0,1-.38-1.85,4.41,4.41,0,0,1,.33-1.68,4.33,4.33,0,0,1,1-1.42,4.83,4.83,0,0,1,1.58-1,5.68,5.68,0,0,1,2.14-.38,6.55,6.55,0,0,1,2.41.43,5.82,5.82,0,0,1,2,1.31Z"/><path class="cls-2" d="M386.8,178.05v1h-9.12v7h7.59v1h-7.59v7.22h9.12v1H376.42V178.05Z"/><path class="cls-2" d="M397.64,187.53v7.83h-1.25V178.05h4.41a7.16,7.16,0,0,1,4.48,1.16,4,4,0,0,1,1.48,3.39,4.63,4.63,0,0,1-.34,1.81,4.22,4.22,0,0,1-1,1.44,5.08,5.08,0,0,1-1.54,1,6.78,6.78,0,0,1-2.05.52,2.22,2.22,0,0,1,.53.49l6,7.49h-1.09a.86.86,0,0,1-.34-.07,1,1,0,0,1-.27-.25l-5.55-7a1.11,1.11,0,0,0-.44-.38,2,2,0,0,0-.74-.11Zm0-.93h3a7.31,7.31,0,0,0,2.07-.27,4.66,4.66,0,0,0,1.54-.79,3.49,3.49,0,0,0,1-1.24,3.86,3.86,0,0,0,.33-1.63,3.21,3.21,0,0,0-1.21-2.74,6,6,0,0,0-3.53-.89h-3.16Z"/><path class="cls-2" d="M414.21,178.05h1a.41.41,0,0,1,.28.09.53.53,0,0,1,.17.24l5.9,14.36a8.85,8.85,0,0,1,.38,1.2,7.4,7.4,0,0,1,.35-1.2l5.89-14.36a.66.66,0,0,1,.17-.23.43.43,0,0,1,.29-.1h1l-7.14,17.31h-1.12Z"/><path class="cls-2" d="M439.21,195.36H438V178.05h1.26Z"/><path class="cls-2" d="M462.53,192.45a.32.32,0,0,1,.21.08l.48.53a7.64,7.64,0,0,1-1.17,1,7.26,7.26,0,0,1-1.39.79,8.62,8.62,0,0,1-1.65.5,10.11,10.11,0,0,1-2,.17,8.44,8.44,0,0,1-3.3-.63,7.28,7.28,0,0,1-2.57-1.78,8.21,8.21,0,0,1-1.67-2.8,10.49,10.49,0,0,1-.6-3.64,10.15,10.15,0,0,1,.62-3.6,8.14,8.14,0,0,1,1.74-2.79,7.52,7.52,0,0,1,2.67-1.81,9,9,0,0,1,3.45-.65,10.06,10.06,0,0,1,1.72.14,8,8,0,0,1,1.46.41,6.42,6.42,0,0,1,1.28.65A10.67,10.67,0,0,1,463,180l-.38.55a.34.34,0,0,1-.31.14.53.53,0,0,1-.28-.12l-.43-.32c-.18-.13-.39-.27-.64-.42a4.63,4.63,0,0,0-.89-.41,6.46,6.46,0,0,0-1.18-.32,7.87,7.87,0,0,0-1.53-.13,7.6,7.6,0,0,0-2.9.54A6.71,6.71,0,0,0,452.2,181a7.13,7.13,0,0,0-1.48,2.44,9.16,9.16,0,0,0-.53,3.23,9.61,9.61,0,0,0,.52,3.28,7.15,7.15,0,0,0,1.46,2.44,6.47,6.47,0,0,0,2.19,1.53,7.13,7.13,0,0,0,2.75.53,10.34,10.34,0,0,0,1.66-.12,7.49,7.49,0,0,0,1.34-.37,5.82,5.82,0,0,0,1.13-.6,9.69,9.69,0,0,0,1-.83.42.42,0,0,1,.12-.08A.28.28,0,0,1,462.53,192.45Z"/><path class="cls-2" d="M482.67,178.05v1h-9.11v7h7.59v1h-7.59v7.22h9.11v1H472.3V178.05Z"/><path class="cls-2" d="M500.28,180.15a.35.35,0,0,1-.32.21.69.69,0,0,1-.41-.22,5.69,5.69,0,0,0-.68-.51,5.48,5.48,0,0,0-1.08-.5,4.59,4.59,0,0,0-1.59-.24,4.7,4.7,0,0,0-1.66.27,3.44,3.44,0,0,0-1.2.74,3.26,3.26,0,0,0-.74,1.07,3.33,3.33,0,0,0-.25,1.29,2.6,2.6,0,0,0,.37,1.45,3.31,3.31,0,0,0,1,1,6.2,6.2,0,0,0,1.39.68l1.6.55a16.93,16.93,0,0,1,1.6.59,5.76,5.76,0,0,1,1.39.81,3.74,3.74,0,0,1,1,1.21,3.78,3.78,0,0,1,.38,1.78,5.61,5.61,0,0,1-.38,2.05,4.76,4.76,0,0,1-1.08,1.67,5,5,0,0,1-1.74,1.11,6.11,6.11,0,0,1-2.34.41,6.66,6.66,0,0,1-2.95-.6,7,7,0,0,1-2.17-1.66l.35-.54a.42.42,0,0,1,.34-.18.48.48,0,0,1,.28.15l.42.36c.16.14.36.29.58.46a5.45,5.45,0,0,0,.8.47,6,6,0,0,0,1,.36,5.46,5.46,0,0,0,1.34.14,5,5,0,0,0,1.83-.31,4,4,0,0,0,1.37-.85,3.63,3.63,0,0,0,.85-1.28,4.15,4.15,0,0,0,.3-1.58,2.79,2.79,0,0,0-.38-1.51,3.19,3.19,0,0,0-1-1,6.26,6.26,0,0,0-1.4-.67c-.51-.18-1.05-.35-1.59-.52s-1.08-.37-1.6-.58a5.45,5.45,0,0,1-1.39-.81,3.67,3.67,0,0,1-1-1.24,4.06,4.06,0,0,1-.37-1.85,4.41,4.41,0,0,1,.33-1.68,4,4,0,0,1,1-1.42,4.78,4.78,0,0,1,1.57-1,5.71,5.71,0,0,1,2.14-.38,6.6,6.6,0,0,1,2.42.43,5.88,5.88,0,0,1,1.95,1.31Z"/></svg>