<svg xmlns="http://www.w3.org/2000/svg" id="be1c575d-e3d7-469f-9d3c-8fc5bb8e6a63" data-name="Layer 1" width="95.3525" height="68.6216" viewBox="0 0 95.3525 68.6216"><path d="M45.0342,20.8252.9824,41.1567V70.1338h2v-26.29L44.0952,60.9218v9.212h2V60.9527L62.5762,54.92V70.1338h2V54.1883l6.082-2.2262v15.825l-6.082,2.3467h5.5545l2.5275-.9756V51.23L94.335,43.2959V70.1338h2V41.0762ZM2.9824,42.7607V42.437l.1665-.0768Zm67.6758,7.0718L63.24,52.5477,52.95,46.3462l6.3965-3.417,11.3115,6.375Zm2-.732v-.9652L59.3721,40.6479,48.9014,46.2417,60.8292,53.43l-15.711,5.7506L3.848,42.0375,45.0942,23,92.6653,41.7775Z" transform="translate(-0.9824 -1.5122)"></path><rect x="12" y="9.067" width="2" height="14.8661" transform="translate(-8.7007 11.5235) rotate(-42.2737)"></rect><rect x="69.7218" y="13.5001" width="15.5563" height="1.9998" transform="translate(11.4638 57.5355) rotate(-45)"></rect><rect x="26.4703" y="2.1751" width="1.9999" height="15.1811" transform="translate(-2.6392 9.5168) rotate(-22.054)"></rect><rect x="53.3341" y="7.9229" width="15.1815" height="1.9999" transform="matrix(0.3755, -0.9268, 0.9268, 0.3755, 28.7945, 60.5262)"></rect><rect x="43.7309" y="2.7303" width="2.0001" height="10.2407" transform="translate(-1.0524 -1.1024) rotate(-0.5245)"></rect></svg>